<svg xmlns="http://www.w3.org/2000/svg" xmlns:xlink="http://www.w3.org/1999/xlink" width="100" zoomAndPan="magnify" viewBox="0 0 75 74.999997" height="100" preserveAspectRatio="xMidYMid meet" version="1.0"><defs><clipPath id="441688b76f"><path d="M 5.015625 0 L 70.265625 0 L 70.265625 75 L 5.015625 75 Z M 5.015625 0 " clip-rule="nonzero"/></clipPath></defs><g clip-path="url(#441688b76f)"><path fill="#1bb7cc" d="M 55.648438 39.457031 L 48.34375 43.652344 L 41.039062 47.851562 L 41.039062 39.457031 L 48.34375 35.261719 L 55.648438 31.0625 L 62.953125 26.855469 L 62.953125 52.058594 L 37.640625 66.605469 L 26.9375 60.453125 L 26.9375 31.347656 L 33.140625 27.78125 L 34.242188 27.148438 L 41.039062 23.234375 L 44.945312 20.996094 L 52.25 16.796875 L 59.554688 12.601562 L 53.945312 9.378906 L 52.25 8.394531 L 37.640625 0 L 21.324219 9.378906 L 5.023438 18.753906 L 5.023438 56.253906 L 12.328125 60.453125 L 12.328125 22.953125 L 37.640625 8.394531 L 44.945312 12.601562 L 41.039062 14.839844 L 34.242188 18.753906 L 29.496094 21.480469 L 19.632812 27.148438 L 19.632812 64.648438 L 21.324219 65.621094 L 26.9375 68.847656 L 37.640625 75 L 53.945312 65.621094 L 70.257812 56.253906 L 70.257812 18.753906 L 66.863281 16.796875 L 59.554688 20.996094 L 52.25 25.191406 L 44.945312 29.390625 L 41.039062 31.628906 L 34.242188 35.542969 L 34.242188 56.253906 L 37.640625 58.210938 L 41.039062 56.253906 L 55.648438 47.851562 Z M 55.648438 39.457031 " fill-opacity="1" fill-rule="evenodd"/></g></svg>